<svg width="40" height="40" viewBox="0 0 40 40" fill="none" xmlns="http://www.w3.org/2000/svg">
<path d="M38.75 38.75H37.5C32.3621 38.7497 27.3965 36.8974 23.5137 33.5327L22.1991 32.3933C21.4682 32.4643 20.7343 32.4999 20 32.5C15.037 32.5 10.3605 30.9038 6.83219 28.0055C3.23242 25.0487 1.25 21.0957 1.25 16.875C1.25 12.6543 3.23242 8.70133 6.83219 5.74445C10.3605 2.84617 15.037 1.25 20 1.25C24.963 1.25 29.6395 2.84617 33.1678 5.74445C36.7676 8.70133 38.75 12.6543 38.75 16.875C38.7482 19.1186 38.182 21.3257 37.1034 23.293C36.1671 25.0065 34.9202 26.5308 33.4264 27.7881C34.5428 30.6269 36.2301 33.2062 38.3838 35.3662L38.75 35.7323V38.75ZM23.0044 29.783L25.151 31.6434C28.1117 34.2092 31.7981 35.7891 35.6979 36.1637C33.5462 33.7586 31.8845 30.9567 30.8059 27.9151L30.4626 26.9414L31.182 26.3892C34.4502 23.8811 36.25 20.5023 36.25 16.875C36.25 9.63781 28.9602 3.75 20 3.75C11.0398 3.75 3.75 9.63781 3.75 16.875C3.75 24.1122 11.0398 30 20 30C20.82 29.9999 21.6392 29.95 22.4531 29.8505L23.0044 29.783Z" fill="#4ECB71"/>
</svg>
