<svg width="64" height="64" viewBox="0 0 64 64" fill="none" xmlns="http://www.w3.org/2000/svg">
<path d="M32.001 27.927L28.755 37.916H18.251L26.749 44.09L23.501 54.078L32.001 47.906L40.499 54.078L37.251 44.09L45.749 37.916H35.245L32.001 27.927ZM34.839 43.047L36.591 48.443L32.001 45.107L27.407 48.443L29.163 43.047L24.571 39.711H30.247L32.001 34.315L33.755 39.711H39.429L34.839 43.047Z" fill="#2DC53C"/>
<path d="M44.657 26.519V17.821C44.657 17.457 44.458 17.151 44.176 16.961L54 2H35.165L32.001 6.746L28.837 2H10L19.823 16.96C19.678 17.0526 19.5583 17.1798 19.4745 17.33C19.3907 17.4803 19.3456 17.649 19.343 17.821V26.519C14.862 30.187 12 35.758 12 42C12 53.045 20.955 62 32 62H32.001C32.682 62 33.355 61.965 34.018 61.898C44.115 60.887 52 52.365 52 42C52 35.758 49.138 30.187 44.657 26.519ZM40.826 3H47.154L38.329 16.239L35.165 11.493L40.826 3ZM41.493 20.985L42.466 19.527C42.518 19.652 42.548 19.788 42.548 19.931V24.15C42.5457 24.4135 42.4389 24.6653 42.251 24.85C39.251 23.052 35.752 22 32 22C28.3874 22.0008 24.8433 22.9865 21.749 24.851C21.5611 24.6659 21.4543 24.4138 21.452 24.15V19.931C21.452 19.788 21.482 19.651 21.534 19.527L22.507 20.986H41.493V20.985ZM16.846 3H23.174L34.498 19.985H28.17L16.846 3ZM32 59C22.612 59 15 51.389 15 42C15 32.611 22.612 25 32 25C41.388 25 49 32.611 49 42C49 51.389 41.388 59 32 59Z" fill="#2DC53C"/>
</svg>
