<svg width="180" height="180" viewBox="0 0 180 180" fill="none" xmlns="http://www.w3.org/2000/svg">
<rect width="180" height="180" rx="20" fill="#F5F6F8"/>
<g filter="url(#filter0_d_5209_48)">
<path d="M73.3032 58.9868C74.0642 61.8856 76.6514 61.7631 77.7358 60.4974C77.7358 60.4974 80.6655 67.5811 88.4462 68.2752C96.227 67.5811 99.1566 60.4974 99.1566 60.4974C100.241 61.7835 102.828 61.8856 103.589 58.9868C104.35 56.088 102.181 55.2714 102.181 55.2714C102.181 55.2714 103.589 54.1078 103.589 52.3726C103.589 50.6374 101.42 49.2288 101.42 49.2288C101.42 49.2288 103.037 48.3102 102.181 46.085C101.325 43.8803 99.6893 45.1664 99.48 44.5744C99.2708 44.0028 100.013 41.7981 99.48 40.9815C98.9474 40.165 98.0723 41.104 96.7786 40.0425C94.2865 36.8987 88.4462 36.4496 88.4462 36.4496C88.4462 36.4496 82.6059 36.9191 80.1138 40.0425C78.8202 41.0836 77.9451 40.165 77.4124 40.9815C76.8797 41.7981 77.6217 44.0028 77.4124 44.5744C77.2031 45.146 75.5671 43.8803 74.711 46.085C73.8359 48.2898 75.472 49.2288 75.472 49.2288C75.472 49.2288 73.3032 50.617 73.3032 52.3726C73.3032 54.1078 74.711 55.2714 74.711 55.2714C74.711 55.2714 72.5423 56.088 73.3032 58.9868ZM85.9541 43.4312C87.1336 43.4312 87.9326 44.0232 88.4462 44.6152C88.9599 44.0232 89.7589 43.4312 90.9383 43.4312C93.3163 43.4312 96.8928 47.6161 97.9771 53.1892C97.863 54.5773 97.2162 54.4752 97.0069 57.8232C96.7977 61.0078 93.088 65.0498 88.4652 65.5397C83.8424 65.0293 80.1328 61.0078 79.9235 57.8232C79.7143 54.4548 79.0484 54.5773 78.9533 53.1892C80.0187 47.5957 83.5761 43.4312 85.9541 43.4312Z" fill="#EBE29F"/>
<path d="M111.827 73.1544C110.21 70.4801 97.8632 65.7236 97.8632 65.7236L92.7838 70.3576L88.4654 77.6659C88.4654 77.6659 84.3562 70.4597 83.386 69.7656C82.4158 69.0715 79.391 66.2748 79.391 66.2748C79.391 66.2748 69.3274 70.5618 66.4168 72.5419C63.4871 74.5221 64.6856 80.8913 64.6856 80.8913H57V87.628H109.144C109.144 87.628 94.0964 93.4256 60.5575 91.6904L60.8809 104H115.955L116.925 87.5055H120.387V80.8913H112.492C112.473 80.9321 113.444 75.8082 111.827 73.1544ZM107.813 80.5851L100.241 76.8697L99.2709 79.1969H100.793V81.4017H91.6994V79.0745H96.5695L94.1345 77.6863L98.0914 69.2144L102.315 71.5417L101.116 74.1547L108.802 78.1558L107.813 80.5851Z" fill="#EBE29F"/>
<path d="M103.97 52.8218C103.97 52.8218 105.378 51.6582 105.378 49.923C105.378 48.1878 103.209 46.7792 103.209 46.7792C103.209 46.7792 104.826 45.8606 103.97 43.6355C103.114 41.4307 101.478 42.7168 101.269 42.1248C101.059 41.5532 101.801 39.3485 101.269 38.5319C100.736 37.7154 99.8608 38.6544 98.5672 37.5929C96.0751 34.4491 90.2348 34 90.2348 34C90.2348 34 84.3945 34.4695 81.9024 37.5929C80.6087 38.634 79.7336 37.7154 79.201 38.5319C78.6683 39.3485 79.4102 41.5532 79.201 42.1248C78.9917 42.6964 77.3557 41.4307 76.4996 43.6355C75.6245 45.8402 77.2605 46.7792 77.2605 46.7792C77.2605 46.7792 75.0918 48.1674 75.0918 49.923C75.0918 51.6582 76.4996 52.8218 76.4996 52.8218C76.4996 52.8218 74.3309 53.6384 75.0918 56.5372C75.8528 59.436 78.44 59.3135 79.5244 58.0478C79.5244 58.0478 82.454 65.1315 90.2348 65.8256C98.0155 65.1315 100.945 58.0478 100.945 58.0478C102.03 59.3339 104.617 59.436 105.378 56.5372C106.12 53.6384 103.97 52.8218 103.97 52.8218ZM98.7765 55.3736C98.5672 58.5582 94.8576 62.6002 90.2348 63.0901C85.612 62.5798 81.9024 58.5582 81.6931 55.3736C81.4838 52.0052 80.818 52.1277 80.7229 50.7396C81.8072 45.1665 85.3837 40.9816 87.7617 40.9816C88.9411 40.9816 89.7402 41.5736 90.2538 42.1656C90.7675 41.5736 91.5664 40.9816 92.7459 40.9816C95.1239 40.9816 98.7004 45.1665 99.7847 50.7396C99.6325 52.1277 98.9857 52.0052 98.7765 55.3736Z" fill="#2DC53C"/>
<path d="M114.243 78.4824C114.243 78.4824 115.213 73.3789 113.596 70.7047C111.979 68.0304 99.6324 63.2739 99.6324 63.2739L94.5531 67.9079L90.2347 75.2162C90.2347 75.2162 86.1255 68.01 85.1553 67.3159C84.1851 66.6218 81.1603 63.8251 81.1603 63.8251C81.1603 63.8251 71.0967 68.1121 68.1861 70.0922C65.2564 72.0724 66.4549 78.4416 66.4549 78.4416H58.7693V85.1783H110.914C110.914 85.1783 95.8657 90.9759 62.3267 89.2407L62.6501 101.55H117.724L118.694 85.0558H122.157V78.4416H114.243V78.4824ZM109.582 78.1354L102.01 74.42L101.04 76.7472H102.562V78.952H93.4687V76.6247H98.3388L95.9038 75.2366L99.8607 66.7647L104.084 69.0919L102.885 71.705L110.571 75.7061L109.582 78.1354Z" fill="#0E71EB"/>
</g>
<path d="M63.342 127.264C63.342 128.041 63.1587 128.775 62.792 129.464C62.4253 130.153 61.8387 130.718 61.032 131.158C60.2253 131.583 59.1913 131.796 57.93 131.796H55.158V138H52.65V122.71H57.93C59.1033 122.71 60.0933 122.915 60.9 123.326C61.7213 123.722 62.33 124.265 62.726 124.954C63.1367 125.643 63.342 126.413 63.342 127.264ZM57.93 129.75C58.8833 129.75 59.5947 129.537 60.064 129.112C60.5333 128.672 60.768 128.056 60.768 127.264C60.768 125.592 59.822 124.756 57.93 124.756H55.158V129.75H57.93ZM67.01 124.272C66.5553 124.272 66.174 124.118 65.866 123.81C65.558 123.502 65.404 123.121 65.404 122.666C65.404 122.211 65.558 121.83 65.866 121.522C66.174 121.214 66.5553 121.06 67.01 121.06C67.45 121.06 67.824 121.214 68.132 121.522C68.44 121.83 68.594 122.211 68.594 122.666C68.594 123.121 68.44 123.502 68.132 123.81C67.824 124.118 67.45 124.272 67.01 124.272ZM68.242 125.878V138H65.734V125.878H68.242ZM70.6988 131.884C70.6988 130.667 70.9481 129.589 71.4468 128.65C71.9601 127.711 72.6494 126.985 73.5148 126.472C74.3948 125.944 75.3701 125.68 76.4408 125.68C77.2328 125.68 78.0101 125.856 78.7728 126.208C79.5501 126.545 80.1661 127 80.6208 127.572V121.72H83.1508V138H80.6208V136.174C80.2101 136.761 79.6381 137.245 78.9048 137.626C78.1861 138.007 77.3574 138.198 76.4188 138.198C75.3628 138.198 74.3948 137.934 73.5148 137.406C72.6494 136.863 71.9601 136.115 71.4468 135.162C70.9481 134.194 70.6988 133.101 70.6988 131.884ZM80.6208 131.928C80.6208 131.092 80.4448 130.366 80.0928 129.75C79.7554 129.134 79.3081 128.665 78.7508 128.342C78.1934 128.019 77.5921 127.858 76.9468 127.858C76.3014 127.858 75.7001 128.019 75.1428 128.342C74.5854 128.65 74.1308 129.112 73.7788 129.728C73.4414 130.329 73.2728 131.048 73.2728 131.884C73.2728 132.72 73.4414 133.453 73.7788 134.084C74.1308 134.715 74.5854 135.199 75.1428 135.536C75.7148 135.859 76.3161 136.02 76.9468 136.02C77.5921 136.02 78.1934 135.859 78.7508 135.536C79.3081 135.213 79.7554 134.744 80.0928 134.128C80.4448 133.497 80.6208 132.764 80.6208 131.928ZM85.6089 131.884C85.6089 130.667 85.8583 129.589 86.3569 128.65C86.8703 127.711 87.5596 126.985 88.4249 126.472C89.3049 125.944 90.2729 125.68 91.3289 125.68C92.2823 125.68 93.1109 125.871 93.8149 126.252C94.5336 126.619 95.1056 127.081 95.5309 127.638V125.878H98.0609V138H95.5309V136.196C95.1056 136.768 94.5263 137.245 93.7929 137.626C93.0596 138.007 92.2236 138.198 91.2849 138.198C90.2436 138.198 89.2903 137.934 88.4249 137.406C87.5596 136.863 86.8703 136.115 86.3569 135.162C85.8583 134.194 85.6089 133.101 85.6089 131.884ZM95.5309 131.928C95.5309 131.092 95.3549 130.366 95.0029 129.75C94.6656 129.134 94.2183 128.665 93.6609 128.342C93.1036 128.019 92.5023 127.858 91.8569 127.858C91.2116 127.858 90.6103 128.019 90.0529 128.342C89.4956 128.65 89.0409 129.112 88.6889 129.728C88.3516 130.329 88.1829 131.048 88.1829 131.884C88.1829 132.72 88.3516 133.453 88.6889 134.084C89.0409 134.715 89.4956 135.199 90.0529 135.536C90.6249 135.859 91.2263 136.02 91.8569 136.02C92.5023 136.02 93.1036 135.859 93.6609 135.536C94.2183 135.213 94.6656 134.744 95.0029 134.128C95.3549 133.497 95.5309 132.764 95.5309 131.928ZM107.471 125.68C108.424 125.68 109.275 125.878 110.023 126.274C110.786 126.67 111.38 127.257 111.805 128.034C112.23 128.811 112.443 129.75 112.443 130.85V138H109.957V131.224C109.957 130.139 109.686 129.31 109.143 128.738C108.6 128.151 107.86 127.858 106.921 127.858C105.982 127.858 105.234 128.151 104.677 128.738C104.134 129.31 103.863 130.139 103.863 131.224V138H101.355V125.878H103.863V127.264C104.274 126.765 104.794 126.377 105.425 126.098C106.07 125.819 106.752 125.68 107.471 125.68ZM114.806 131.884C114.806 130.667 115.056 129.589 115.554 128.65C116.068 127.711 116.757 126.985 117.622 126.472C118.502 125.944 119.47 125.68 120.526 125.68C121.48 125.68 122.308 125.871 123.012 126.252C123.731 126.619 124.303 127.081 124.728 127.638V125.878H127.258V138H124.728V136.196C124.303 136.768 123.724 137.245 122.99 137.626C122.257 138.007 121.421 138.198 120.482 138.198C119.441 138.198 118.488 137.934 117.622 137.406C116.757 136.863 116.068 136.115 115.554 135.162C115.056 134.194 114.806 133.101 114.806 131.884ZM124.728 131.928C124.728 131.092 124.552 130.366 124.2 129.75C123.863 129.134 123.416 128.665 122.858 128.342C122.301 128.019 121.7 127.858 121.054 127.858C120.409 127.858 119.808 128.019 119.25 128.342C118.693 128.65 118.238 129.112 117.886 129.728C117.549 130.329 117.38 131.048 117.38 131.884C117.38 132.72 117.549 133.453 117.886 134.084C118.238 134.715 118.693 135.199 119.25 135.536C119.822 135.859 120.424 136.02 121.054 136.02C121.7 136.02 122.301 135.859 122.858 135.536C123.416 135.213 123.863 134.744 124.2 134.128C124.552 133.497 124.728 132.764 124.728 131.928Z" fill="black"/>
<defs>
<filter id="filter0_d_5209_48" x="52" y="32" width="77.1567" height="82.0001" filterUnits="userSpaceOnUse" color-interpolation-filters="sRGB">
<feFlood flood-opacity="0" result="BackgroundImageFix"/>
<feColorMatrix in="SourceAlpha" type="matrix" values="0 0 0 0 0 0 0 0 0 0 0 0 0 0 0 0 0 0 127 0" result="hardAlpha"/>
<feOffset dx="1" dy="4"/>
<feGaussianBlur stdDeviation="3"/>
<feComposite in2="hardAlpha" operator="out"/>
<feColorMatrix type="matrix" values="0 0 0 0 0 0 0 0 0 0 0 0 0 0 0 0 0 0 0.25 0"/>
<feBlend mode="normal" in2="BackgroundImageFix" result="effect1_dropShadow_5209_48"/>
<feBlend mode="normal" in="SourceGraphic" in2="effect1_dropShadow_5209_48" result="shape"/>
</filter>
</defs>
</svg>
