<svg width="180" height="180" viewBox="0 0 180 180" fill="none" xmlns="http://www.w3.org/2000/svg">
<rect width="180" height="180" rx="20" fill="#F5F6F8"/>
<path d="M74.9216 73.0381C75.2985 72.3565 75.3703 71.5096 75.137 70.7454L67.2039 44.6167L86.6597 52.5689V94.0856H85.6367C84.3265 94.0856 83.1598 95.0357 82.7111 96.4609L81.9752 98.8363H78.8343C77.7036 98.8363 76.6626 99.5385 76.1241 100.695L74.5447 104H89.3879H104.231L102.652 100.695C102.113 99.5592 101.072 98.8363 99.9414 98.8363H96.8005L96.0646 96.4609C95.6338 95.0357 94.4672 94.0856 93.139 94.0856H92.116V53.8289L112.415 56.2868L104.321 83.882C104.105 84.6256 104.177 85.4311 104.518 86.0921C105.451 87.9304 107.857 91.2765 112.738 91.2765C116.777 91.2765 119.702 87.9717 121.048 85.5551C121.425 84.8734 121.497 84.0266 121.264 83.2624L113.097 56.3695L114.067 56.4934C114.785 56.576 115.449 55.9977 115.556 55.1715C115.664 54.3659 115.197 53.6017 114.497 53.4158L92.0801 47.715V43.522L90.8596 42.1175V36.4786H89.334H87.8084V42.1175L86.5879 43.522V46.2485L65.1578 40.5064C64.4578 40.3205 63.7578 40.7749 63.5604 41.5598C63.345 42.3653 63.7219 43.2122 64.404 43.5014L66.0911 44.183L58.1221 71.365C57.9067 72.1086 57.9785 72.9142 58.3195 73.5751C59.2528 75.4134 61.6579 78.7596 66.5398 78.7596C70.6499 78.7596 73.5755 75.4341 74.9216 73.0381ZM107.157 82.746L112.9 62.1942L118.338 82.746H107.157ZM60.94 70.2497L66.6834 49.6979L72.1217 70.2497H60.94Z" fill="#EBE29F"/>
<path d="M68.2808 40.1758L59.8631 68.907C59.6477 69.6506 59.7195 70.4561 60.0605 71.1171C60.9938 72.9554 63.3989 76.3015 68.2808 76.3015C72.3191 76.3015 75.2447 72.9967 76.5908 70.58C76.9677 69.8984 77.0395 69.0516 76.8062 68.2873L68.2808 40.1758ZM62.6092 67.7709L68.3526 47.2192L73.7909 67.7709H62.6092Z" fill="#2DC53C"/>
<path d="M114.497 52.6721L106.08 81.4033C105.864 82.1469 105.936 82.9524 106.277 83.6134C107.21 85.4517 109.615 88.7978 114.497 88.7978C118.536 88.7978 121.461 85.493 122.807 83.0764C123.184 82.3948 123.256 81.5479 123.023 80.7837L114.497 52.6721ZM108.826 80.2879L114.569 59.7361L120.007 80.2879H108.826Z" fill="#2DC53C"/>
<path d="M104.374 98.2372C103.836 97.1012 102.795 96.3783 101.664 96.3783H98.5233L97.7875 94.003C97.3567 92.5778 96.1901 91.6276 94.8619 91.6276H93.8389V41.0434L92.6184 39.6388V34H91.0928H89.5672V39.6388L88.3467 41.0434V91.607H87.3237C86.0135 91.607 84.8468 92.5571 84.3981 93.9823L83.6622 96.3576H80.5213C79.3906 96.3576 78.3496 97.0599 77.8111 98.2166L76.2317 101.521H91.0748H105.918L104.374 98.2372Z" fill="#0E71EB"/>
<path d="M65.3013 39.0811C65.0859 39.8866 65.4628 40.7335 66.1449 41.0227L90.339 50.9164V44.3068L66.9167 38.0277C66.2167 37.8418 65.5167 38.2962 65.3013 39.0811Z" fill="#0E71EB"/>
<path d="M117.315 52.6929C117.208 53.5191 116.561 54.1181 115.826 54.0148L90.3032 50.9372L92.7801 44.9679L116.256 50.9372C116.956 51.1231 117.423 51.8873 117.315 52.6929Z" fill="#0E71EB"/>
<path d="M47.158 124.734V129.222H52.438V131.268H47.158V135.954H53.098V138H44.65V122.688H53.098V124.734H47.158ZM60.9831 131.95L66.5711 138H63.1831L58.6951 132.786V138H56.1871V121.72H58.6951V131.18L63.0951 125.878H66.5711L60.9831 131.95ZM73.6268 138.198C72.4828 138.198 71.4488 137.941 70.5248 137.428C69.6008 136.9 68.8748 136.167 68.3468 135.228C67.8188 134.275 67.5548 133.175 67.5548 131.928C67.5548 130.696 67.8261 129.603 68.3688 128.65C68.9114 127.697 69.6521 126.963 70.5908 126.45C71.5294 125.937 72.5781 125.68 73.7368 125.68C74.8954 125.68 75.9441 125.937 76.8828 126.45C77.8214 126.963 78.5621 127.697 79.1048 128.65C79.6474 129.603 79.9188 130.696 79.9188 131.928C79.9188 133.16 79.6401 134.253 79.0828 135.206C78.5254 136.159 77.7628 136.9 76.7948 137.428C75.8414 137.941 74.7854 138.198 73.6268 138.198ZM73.6268 136.02C74.2721 136.02 74.8734 135.866 75.4308 135.558C76.0028 135.25 76.4648 134.788 76.8168 134.172C77.1688 133.556 77.3448 132.808 77.3448 131.928C77.3448 131.048 77.1761 130.307 76.8388 129.706C76.5014 129.09 76.0541 128.628 75.4968 128.32C74.9394 128.012 74.3381 127.858 73.6928 127.858C73.0474 127.858 72.4461 128.012 71.8888 128.32C71.3461 128.628 70.9134 129.09 70.5908 129.706C70.2681 130.307 70.1068 131.048 70.1068 131.928C70.1068 133.233 70.4368 134.245 71.0968 134.964C71.7714 135.668 72.6148 136.02 73.6268 136.02ZM88.514 125.68C89.4674 125.68 90.318 125.878 91.066 126.274C91.8287 126.67 92.4227 127.257 92.848 128.034C93.2734 128.811 93.486 129.75 93.486 130.85V138H91V131.224C91 130.139 90.7287 129.31 90.186 128.738C89.6434 128.151 88.9027 127.858 87.964 127.858C87.0254 127.858 86.2774 128.151 85.72 128.738C85.1774 129.31 84.906 130.139 84.906 131.224V138H82.398V125.878H84.906V127.264C85.3167 126.765 85.8374 126.377 86.468 126.098C87.1134 125.819 87.7954 125.68 88.514 125.68ZM101.943 138.198C100.799 138.198 99.7652 137.941 98.8412 137.428C97.9172 136.9 97.1912 136.167 96.6632 135.228C96.1352 134.275 95.8712 133.175 95.8712 131.928C95.8712 130.696 96.1425 129.603 96.6852 128.65C97.2278 127.697 97.9685 126.963 98.9072 126.45C99.8458 125.937 100.894 125.68 102.053 125.68C103.212 125.68 104.26 125.937 105.199 126.45C106.138 126.963 106.878 127.697 107.421 128.65C107.964 129.603 108.235 130.696 108.235 131.928C108.235 133.16 107.956 134.253 107.399 135.206C106.842 136.159 106.079 136.9 105.111 137.428C104.158 137.941 103.102 138.198 101.943 138.198ZM101.943 136.02C102.588 136.02 103.19 135.866 103.747 135.558C104.319 135.25 104.781 134.788 105.133 134.172C105.485 133.556 105.661 132.808 105.661 131.928C105.661 131.048 105.492 130.307 105.155 129.706C104.818 129.09 104.37 128.628 103.813 128.32C103.256 128.012 102.654 127.858 102.009 127.858C101.364 127.858 100.762 128.012 100.205 128.32C99.6625 128.628 99.2298 129.09 98.9072 129.706C98.5845 130.307 98.4232 131.048 98.4232 131.928C98.4232 133.233 98.7532 134.245 99.4132 134.964C100.088 135.668 100.931 136.02 101.943 136.02ZM125.388 125.68C126.342 125.68 127.192 125.878 127.94 126.274C128.703 126.67 129.297 127.257 129.722 128.034C130.162 128.811 130.382 129.75 130.382 130.85V138H127.896V131.224C127.896 130.139 127.625 129.31 127.082 128.738C126.54 128.151 125.799 127.858 124.86 127.858C123.922 127.858 123.174 128.151 122.616 128.738C122.074 129.31 121.802 130.139 121.802 131.224V138H119.316V131.224C119.316 130.139 119.045 129.31 118.502 128.738C117.96 128.151 117.219 127.858 116.28 127.858C115.342 127.858 114.594 128.151 114.036 128.738C113.494 129.31 113.222 130.139 113.222 131.224V138H110.714V125.878H113.222V127.264C113.633 126.765 114.154 126.377 114.784 126.098C115.415 125.819 116.09 125.68 116.808 125.68C117.776 125.68 118.642 125.885 119.404 126.296C120.167 126.707 120.754 127.301 121.164 128.078C121.531 127.345 122.103 126.765 122.88 126.34C123.658 125.9 124.494 125.68 125.388 125.68ZM134.85 124.272C134.395 124.272 134.014 124.118 133.706 123.81C133.398 123.502 133.244 123.121 133.244 122.666C133.244 122.211 133.398 121.83 133.706 121.522C134.014 121.214 134.395 121.06 134.85 121.06C135.29 121.06 135.664 121.214 135.972 121.522C136.28 121.83 136.434 122.211 136.434 122.666C136.434 123.121 136.28 123.502 135.972 123.81C135.664 124.118 135.29 124.272 134.85 124.272ZM136.082 125.878V138H133.574V125.878H136.082Z" fill="black"/>
</svg>
