<svg width="180" height="180" viewBox="0 0 180 180" fill="none" xmlns="http://www.w3.org/2000/svg">
<rect width="180" height="180" rx="20" fill="#F5F6F8"/>
<g filter="url(#filter0_d_5209_47)">
<path d="M63.7073 104H120.747L121.167 100.939H64.1933C62.5585 100.939 61.233 99.5985 61.233 97.9451C61.233 96.2917 62.5585 94.9511 64.1933 94.9511H122.006L122.051 94.5936L117.367 36.1213H67.4407C63.9282 36.1213 61.0121 38.8696 60.7691 42.4221L57.0136 96.7833C56.7706 100.671 59.8192 104 63.7073 104Z" fill="#3DCA4B"/>
<path d="M64.2067 98.1858C62.5695 98.1858 61.2419 96.8582 61.2419 95.221C61.2419 93.5837 62.5695 92.2562 64.2067 92.2562H122.109L122.153 91.9022L117.463 34H67.4592C63.9412 34 61.0207 36.7214 60.7773 40.2394L57.016 94.0704C56.7505 97.9424 59.8259 101.239 63.6979 101.239H120.826L121.246 98.2079H64.2067V98.1858Z" fill="white"/>
<path d="M80.7122 66.5022L75.1366 53.0278L68.8751 66.4801C68.7424 66.7898 68.7424 67.1217 68.9194 67.4093C69.5168 68.405 71.2647 70.6175 74.8269 70.6175C78.4112 70.6175 80.0927 68.3607 80.6459 67.3872C80.8007 67.1217 80.8229 66.7898 80.7122 66.5022ZM74.7826 65.9048H70.7558L75.1588 56.0369L78.8316 65.9048H74.7826Z" fill="#2DC53C"/>
<path d="M99.5852 52.5852C102.152 52.3861 104.74 53.7136 104.74 53.7136C104.74 53.7136 103.391 49.7974 99.5852 50.2399C95.7797 50.6824 95.0938 51.9214 92.9697 50.4612C90.8457 49.0009 90.9342 46.0803 89.6067 46.0803C88.257 46.0803 88.3676 49.0009 86.2436 50.4612C84.1196 51.9214 83.4337 50.6824 79.6281 50.2399C75.8225 49.7974 74.4729 53.7136 74.4729 53.7136C74.4729 53.7136 77.0616 52.3861 79.6281 52.5852C82.5044 52.8064 82.0398 54.9305 85.1152 54.2667C86.5976 53.9348 87.6818 53.8242 87.6818 53.8242L87.018 76.1266C83.5443 76.1266 83.1018 78.14 83.1018 78.14C78.6103 77.8081 79.1856 81.2818 79.1856 81.2818H89.6067H100.028C100.028 81.2818 100.581 77.8081 96.1115 78.14C96.1115 78.14 95.669 76.1266 92.1953 76.1266L91.5316 53.8242C91.5316 53.8242 92.6157 53.957 94.0981 54.2667C97.1736 54.9305 96.6868 52.8064 99.5852 52.5852Z" fill="#2DC53C"/>
<path d="M98.5454 67.3872C99.0986 68.3829 100.78 70.6175 104.364 70.6175C107.927 70.6175 109.652 68.405 110.272 67.4093C110.449 67.1217 110.471 66.7677 110.316 66.4801L104.055 53.0278L98.4791 66.5022C98.3684 66.7898 98.3906 67.1217 98.5454 67.3872ZM100.382 65.9048L104.055 56.059L108.458 65.9269H104.431H100.382V65.9048Z" fill="#2DC53C"/>
</g>
<path d="M58.342 127.264C58.342 128.041 58.1587 128.775 57.792 129.464C57.4253 130.153 56.8387 130.718 56.032 131.158C55.2253 131.583 54.1913 131.796 52.93 131.796H50.158V138H47.65V122.71H52.93C54.1033 122.71 55.0933 122.915 55.9 123.326C56.7213 123.722 57.33 124.265 57.726 124.954C58.1367 125.643 58.342 126.413 58.342 127.264ZM52.93 129.75C53.8833 129.75 54.5947 129.537 55.064 129.112C55.5333 128.672 55.768 128.056 55.768 127.264C55.768 125.592 54.822 124.756 52.93 124.756H50.158V129.75H52.93ZM71.844 131.642C71.844 132.097 71.8147 132.507 71.756 132.874H62.494C62.5673 133.842 62.9267 134.619 63.572 135.206C64.2173 135.793 65.0093 136.086 65.948 136.086C67.2973 136.086 68.2507 135.521 68.808 134.392H71.514C71.1473 135.507 70.48 136.423 69.512 137.142C68.5587 137.846 67.3707 138.198 65.948 138.198C64.7893 138.198 63.748 137.941 62.824 137.428C61.9147 136.9 61.196 136.167 60.668 135.228C60.1547 134.275 59.898 133.175 59.898 131.928C59.898 130.681 60.1473 129.589 60.646 128.65C61.1593 127.697 61.8707 126.963 62.78 126.45C63.704 125.937 64.76 125.68 65.948 125.68C67.092 125.68 68.1113 125.929 69.006 126.428C69.9007 126.927 70.5973 127.631 71.096 128.54C71.5947 129.435 71.844 130.469 71.844 131.642ZM69.226 130.85C69.2113 129.926 68.8813 129.185 68.236 128.628C67.5907 128.071 66.7913 127.792 65.838 127.792C64.9727 127.792 64.232 128.071 63.616 128.628C63 129.171 62.6333 129.911 62.516 130.85H69.226ZM76.8201 127.638C77.1868 127.022 77.6708 126.545 78.2721 126.208C78.8881 125.856 79.6141 125.68 80.4501 125.68V128.276H79.8121C78.8294 128.276 78.0814 128.525 77.5681 129.024C77.0694 129.523 76.8201 130.388 76.8201 131.62V138H74.3121V125.878H76.8201V127.638ZM81.9195 131.884C81.9195 130.667 82.1688 129.589 82.6675 128.65C83.1808 127.711 83.8701 126.985 84.7355 126.472C85.6155 125.944 86.5908 125.68 87.6615 125.68C88.4535 125.68 89.2308 125.856 89.9935 126.208C90.7708 126.545 91.3868 127 91.8415 127.572V121.72H94.3715V138H91.8415V136.174C91.4308 136.761 90.8588 137.245 90.1255 137.626C89.4068 138.007 88.5781 138.198 87.6395 138.198C86.5835 138.198 85.6155 137.934 84.7355 137.406C83.8701 136.863 83.1808 136.115 82.6675 135.162C82.1688 134.194 81.9195 133.101 81.9195 131.884ZM91.8415 131.928C91.8415 131.092 91.6655 130.366 91.3135 129.75C90.9761 129.134 90.5288 128.665 89.9715 128.342C89.4141 128.019 88.8128 127.858 88.1675 127.858C87.5221 127.858 86.9208 128.019 86.3635 128.342C85.8061 128.65 85.3515 129.112 84.9995 129.728C84.6621 130.329 84.4935 131.048 84.4935 131.884C84.4935 132.72 84.6621 133.453 84.9995 134.084C85.3515 134.715 85.8061 135.199 86.3635 135.536C86.9355 135.859 87.5368 136.02 88.1675 136.02C88.8128 136.02 89.4141 135.859 89.9715 135.536C90.5288 135.213 90.9761 134.744 91.3135 134.128C91.6655 133.497 91.8415 132.764 91.8415 131.928ZM96.8296 131.884C96.8296 130.667 97.079 129.589 97.5776 128.65C98.091 127.711 98.7803 126.985 99.6456 126.472C100.526 125.944 101.494 125.68 102.55 125.68C103.503 125.68 104.332 125.871 105.036 126.252C105.754 126.619 106.326 127.081 106.752 127.638V125.878H109.282V138H106.752V136.196C106.326 136.768 105.747 137.245 105.014 137.626C104.28 138.007 103.444 138.198 102.506 138.198C101.464 138.198 100.511 137.934 99.6456 137.406C98.7803 136.863 98.091 136.115 97.5776 135.162C97.079 134.194 96.8296 133.101 96.8296 131.884ZM106.752 131.928C106.752 131.092 106.576 130.366 106.224 129.75C105.886 129.134 105.439 128.665 104.882 128.342C104.324 128.019 103.723 127.858 103.078 127.858C102.432 127.858 101.831 128.019 101.274 128.342C100.716 128.65 100.262 129.112 99.9096 129.728C99.5723 130.329 99.4036 131.048 99.4036 131.884C99.4036 132.72 99.5723 133.453 99.9096 134.084C100.262 134.715 100.716 135.199 101.274 135.536C101.846 135.859 102.447 136.02 103.078 136.02C103.723 136.02 104.324 135.859 104.882 135.536C105.439 135.213 105.886 134.744 106.224 134.128C106.576 133.497 106.752 132.764 106.752 131.928ZM115.502 127.924V134.634C115.502 135.089 115.604 135.419 115.81 135.624C116.03 135.815 116.396 135.91 116.91 135.91H118.45V138H116.47C115.34 138 114.475 137.736 113.874 137.208C113.272 136.68 112.972 135.822 112.972 134.634V127.924H111.542V125.878H112.972V122.864H115.502V125.878H118.45V127.924H115.502ZM119.925 131.884C119.925 130.667 120.175 129.589 120.673 128.65C121.187 127.711 121.876 126.985 122.741 126.472C123.621 125.944 124.589 125.68 125.645 125.68C126.599 125.68 127.427 125.871 128.131 126.252C128.85 126.619 129.422 127.081 129.847 127.638V125.878H132.377V138H129.847V136.196C129.422 136.768 128.843 137.245 128.109 137.626C127.376 138.007 126.54 138.198 125.601 138.198C124.56 138.198 123.607 137.934 122.741 137.406C121.876 136.863 121.187 136.115 120.673 135.162C120.175 134.194 119.925 133.101 119.925 131.884ZM129.847 131.928C129.847 131.092 129.671 130.366 129.319 129.75C128.982 129.134 128.535 128.665 127.977 128.342C127.42 128.019 126.819 127.858 126.173 127.858C125.528 127.858 124.927 128.019 124.369 128.342C123.812 128.65 123.357 129.112 123.005 129.728C122.668 130.329 122.499 131.048 122.499 131.884C122.499 132.72 122.668 133.453 123.005 134.084C123.357 134.715 123.812 135.199 124.369 135.536C124.941 135.859 125.543 136.02 126.173 136.02C126.819 136.02 127.42 135.859 127.977 135.536C128.535 135.213 128.982 134.744 129.319 134.128C129.671 133.497 129.847 132.764 129.847 131.928Z" fill="black"/>
<defs>
<filter id="filter0_d_5209_47" x="52" y="32" width="77.1531" height="82.0001" filterUnits="userSpaceOnUse" color-interpolation-filters="sRGB">
<feFlood flood-opacity="0" result="BackgroundImageFix"/>
<feColorMatrix in="SourceAlpha" type="matrix" values="0 0 0 0 0 0 0 0 0 0 0 0 0 0 0 0 0 0 127 0" result="hardAlpha"/>
<feOffset dx="1" dy="4"/>
<feGaussianBlur stdDeviation="3"/>
<feComposite in2="hardAlpha" operator="out"/>
<feColorMatrix type="matrix" values="0 0 0 0 0 0 0 0 0 0 0 0 0 0 0 0 0 0 0.25 0"/>
<feBlend mode="normal" in2="BackgroundImageFix" result="effect1_dropShadow_5209_47"/>
<feBlend mode="normal" in="SourceGraphic" in2="effect1_dropShadow_5209_47" result="shape"/>
</filter>
</defs>
</svg>
