<svg width="180" height="180" viewBox="0 0 180 180" fill="none" xmlns="http://www.w3.org/2000/svg">
<rect width="180" height="180" rx="20" fill="#F5F6F8"/>
<path d="M81.86 122.71V138H79.352V131.312H72.158V138H69.65V122.71H72.158V129.266H79.352V122.71H81.86ZM95.0397 122.71V124.756H90.9697V138H88.4617V124.756H84.3697V122.71H95.0397ZM110.142 138H107.634L100.088 126.582V138H97.5797V122.688H100.088L107.634 134.084V122.688H110.142V138Z" fill="black"/>
<path d="M113.754 61.4777V85.4732H126.254V79.6473H123.263V54.7589L116.79 63.2634L113.754 61.4777Z" fill="#2DC53C"/>
<path d="M66.7902 61.4777V85.4732H54.2678V79.6473H57.2589V54.7589L63.7321 63.2634L66.7902 61.4777Z" fill="#2DC53C"/>
<path d="M131.009 90.8303H49.5134V96.6562H131.009V90.8303Z" fill="#0E71EB"/>
<path d="M136.545 98.1741H44V104H136.545V98.1741Z" fill="#0E71EB"/>
<path d="M108.732 83.1295V58.2188L115.964 58.7545L119.58 54.1786L90.2501 34L60.9197 54.1786L64.5358 58.7545L71.7679 58.2188V83.1295H54.2456V88.9554H126.232V83.1295H108.732ZM93.6876 83.1295V58.5759H102.438V83.1295H93.6876ZM90.2724 42.058L102.505 51.7009H78.0403L90.2724 42.058ZM77.5045 58.5536H86.2545V83.1071H77.5045V58.5536Z" fill="#0E71EB"/>
</svg>
